<svg width="201" height="87" viewBox="0 0 201 87" fill="none" xmlns="http://www.w3.org/2000/svg">
<path d="M0.597124 85.7174V50.9933H9.56592V78.5232H24.1942V85.7174H0.597124Z" fill="url(#paint0_linear_1_43)"/>
<path d="M42.1557 86.4848C33.7385 86.4848 27.9352 80.8973 27.9352 72.7678C27.9352 64.6383 33.7385 59.0508 42.1557 59.0508C50.573 59.0508 56.3763 64.6383 56.3763 72.7678C56.3763 80.8973 50.573 86.4848 42.1557 86.4848ZM36.7361 72.7678C36.7361 77.0124 38.9423 79.938 42.1557 79.938C45.3692 79.938 47.5754 77.0124 47.5754 72.7678C47.5754 68.5232 45.3692 65.5975 42.1557 65.5975C38.9423 65.5975 36.7361 68.5232 36.7361 72.7678Z" fill="url(#paint1_linear_1_43)"/>
<path d="M73.9542 86.4848C65.7528 86.4848 60.1893 80.8973 60.1893 72.7678C60.1893 64.6383 65.7528 59.0508 73.9542 59.0508C81.1964 59.0508 86.64 63.4393 87.2395 69.6023H79.1101C78.9422 67.1563 76.688 65.5975 74.266 65.5975C70.9566 65.5975 68.9902 68.5232 68.9902 72.7678C68.9902 76.7246 70.7648 79.938 74.242 79.938C76.6161 79.938 78.9422 78.4272 79.0861 75.9332H87.2395C86.616 82.0963 81.1964 86.4848 73.9542 86.4848Z" fill="url(#paint2_linear_1_43)"/>
<path d="M107.431 68.2114C107.431 66.5328 105.873 65.3817 103.331 65.3817C101.1 65.3817 99.8534 66.245 99.4937 67.3002H91.7C92.3954 62.576 96.5201 59.0508 103.69 59.0508C111.028 59.0508 115.921 62.7918 115.921 68.2114V85.7174H107.431V82.0963C105.849 84.8301 103.019 86.4848 99.4457 86.4848C94.3618 86.4848 90.7887 83.1514 90.7887 78.3073C90.7887 72.504 95.8726 69.9381 103.283 69.9381H107.431V68.2114ZM99.134 77.7318C99.134 79.3865 100.477 80.5136 102.707 80.5136C105.417 80.5136 107.431 78.8829 107.431 76.4848V74.7342H103.283C100.837 74.7342 99.134 75.9093 99.134 77.7318Z" fill="url(#paint3_linear_1_43)"/>
<path d="M134.434 86.4848C126.232 86.4848 120.669 80.8973 120.669 72.7678C120.669 64.6383 126.232 59.0508 134.434 59.0508C141.676 59.0508 147.119 63.4393 147.719 69.6023H139.589C139.422 67.1563 137.167 65.5975 134.745 65.5975C131.436 65.5975 129.47 68.5232 129.47 72.7678C129.47 76.7246 131.244 79.938 134.721 79.938C137.095 79.938 139.422 78.4272 139.566 75.9332H147.719C147.095 82.0963 141.676 86.4848 134.434 86.4848Z" fill="url(#paint4_linear_1_43)"/>
<path d="M167.911 68.2114C167.911 66.5328 166.352 65.3817 163.81 65.3817C161.58 65.3817 160.333 66.245 159.973 67.3002H152.179C152.875 62.576 157 59.0508 164.17 59.0508C171.508 59.0508 176.4 62.7918 176.4 68.2114V85.7174H167.911V82.0963C166.328 84.8301 163.498 86.4848 159.925 86.4848C154.841 86.4848 151.268 83.1514 151.268 78.3073C151.268 72.504 156.352 69.9381 163.762 69.9381H167.911V68.2114ZM159.613 77.7318C159.613 79.3865 160.956 80.5136 163.187 80.5136C165.896 80.5136 167.911 78.8829 167.911 76.4848V74.7342H163.762C161.316 74.7342 159.613 75.9093 159.613 77.7318Z" fill="url(#paint5_linear_1_43)"/>
<path d="M182.467 85.7174V59.8182H191.124V64.2067C192.323 61.0412 195.632 59.0508 198.318 59.0508C199.134 59.0508 200.165 59.2427 201.004 59.5544V66.4848C200.141 66.317 199.062 66.269 198.294 66.269C193.834 66.269 191.124 68.4513 191.124 71.6407V85.7174H182.467Z" fill="url(#paint6_linear_1_43)"/>
<path d="M110.883 0.509022C95.6862 1.75602 89.2854 3.34594 71.8109 10.298L64.1143 13.3531L57.6743 13.5402C37.3332 14.1948 20.9583 16.2212 12.0051 19.214C3.52307 22.0509 -0.953534 28.473 0.303057 35.955C0.813547 39.1348 1.52038 40.3194 3.28746 40.9741C4.50478 41.4106 17.11 42.6264 17.4634 42.3146C17.5812 42.2211 17.3848 41.4729 16.9922 40.6312C16.0104 38.4801 16.089 34.0845 17.1492 31.7463C21.7436 21.5833 37.6081 18.6217 47.1111 26.166C51.9804 30.0317 53.7867 35.955 51.5877 40.8806C51.2735 41.5976 50.9986 42.2835 50.9986 42.4393C50.9986 42.8134 141.984 42.8134 142.259 42.4393C142.376 42.2835 142.219 41.6288 141.866 40.9741C140.884 39.166 140.727 35.1444 141.473 32.8686C144.615 23.3291 158.437 19.0581 168.883 24.3579C174.262 27.1013 177.404 32.1828 176.933 37.3267C176.815 38.6672 176.618 40.0077 176.461 40.2883C176.226 40.7559 176.383 40.8494 177.482 40.8494C179.917 40.8494 193.151 39.2907 194.407 38.8854C196.253 38.2619 197.981 36.7343 199.473 34.365C200.729 32.4322 200.808 32.1204 200.808 29.1588C200.808 26.1972 200.729 25.9478 199.512 24.1708C198.805 23.142 197.391 20.6169 196.449 18.5593C195.153 15.8471 194.329 14.5378 193.386 13.8519C191.894 12.7296 191.383 12.6673 181.291 12.1685L175.126 11.8567L171.553 10.4538C160.401 6.02699 145.243 2.47304 131.342 1.10135C126.63 0.633721 113.907 0.259622 110.883 0.509022ZM125.648 4.06297C134.169 4.71764 141.316 5.87111 146.382 7.36751C150.387 8.55216 154.314 10.0486 154.196 10.3291C154.118 10.485 153.372 11.2956 152.508 12.1685L150.937 13.7272L81.8244 13.5713L81.7066 12.8231C81.6281 12.3867 81.3139 11.7632 80.9998 11.3891C80.45 10.7344 80.5678 10.6721 84.259 9.26919C90.9739 6.77519 98.3564 5.06057 105.974 4.25002C110.962 3.72004 120.111 3.62652 125.648 4.06297Z" fill="black"/>
<path d="M30.7754 24.7321C24.7673 25.9791 20.6441 29.5954 19.5053 34.6146C18.1702 40.7249 23.9034 46.9599 31.7964 48.0198C38.5898 48.9239 44.9906 46.2429 47.975 41.2237C49.0745 39.3532 49.2316 38.8232 49.2316 36.3292C49.2316 33.8352 49.0745 33.3053 47.975 31.4348C44.8728 26.1974 37.5296 23.3604 30.7754 24.7321ZM32.9351 30.6866C32.9351 32.9623 32.1498 33.2117 30.0293 31.5283L28.4585 30.2813L30.2256 29.6578C32.7781 28.7225 32.9351 28.7537 32.9351 30.6866ZM38.3935 29.6578L40.1605 30.2813L38.5898 31.5283C36.4693 33.2117 35.6839 32.9623 35.6839 30.6866C35.6839 28.7537 35.841 28.7225 38.3935 29.6578ZM29.5581 34.7081C29.3617 35.1134 28.812 35.2381 27.202 35.2381C24.7673 35.2381 24.728 35.1134 25.9061 33.087L26.6915 31.6842L28.2622 32.9312C29.3224 33.8041 29.7544 34.334 29.5581 34.7081ZM42.7523 33.1182C43.891 35.1134 43.8125 35.2381 41.4171 35.2381C38.5898 35.2381 38.2757 34.6146 40.2783 32.9935C41.0637 32.3388 41.8098 31.8089 41.8884 31.8089C41.9276 31.8089 42.3596 32.4012 42.7523 33.1182ZM29.6759 37.9192C29.8329 38.2309 29.3617 38.8544 28.3015 39.6961L26.6915 40.9743L25.9061 39.5714C24.728 37.5139 24.7673 37.4204 27.2412 37.4204C28.8905 37.4204 29.4795 37.5451 29.6759 37.9192ZM43.5376 37.7945C43.5376 38.0127 43.1449 38.8232 42.713 39.5714L41.9276 40.9743L40.3569 39.7273C38.2364 38.0439 38.5505 37.4204 41.4171 37.4204C42.8701 37.4204 43.5376 37.5451 43.5376 37.7945ZM32.3069 40.1014C32.7781 40.2573 32.9351 40.7249 32.9351 41.9719C32.9351 43.9047 32.7781 43.9671 30.2649 43.0007L28.5371 42.3148L30.0293 41.1302C30.8539 40.4443 31.5608 39.9144 31.6 39.9144C31.6393 39.9144 31.9534 40.0079 32.3069 40.1014ZM38.6291 41.1614L40.1213 42.3772L38.3935 43.0007C35.841 43.9359 35.6839 43.9047 35.6839 41.9719C35.6839 40.4443 35.9195 40.0391 36.862 39.9455C36.9798 39.9144 37.7652 40.4755 38.6291 41.1614Z" fill="black"/>
<path d="M156.631 24.6384C152.625 25.1684 149.405 26.7583 146.971 29.4082C141.198 35.612 144.536 44.7151 153.646 47.4585C157.298 48.5496 161.539 48.4561 164.956 47.1779C170.336 45.1827 173.398 41.6911 173.791 37.1396C174.066 34.2092 173.359 32.1516 171.239 29.6888C168.097 25.9478 162.128 23.8902 156.631 24.6384ZM157.809 30.6864C157.809 32.9622 157.023 33.2116 154.903 31.5281L153.332 30.2811L155.099 29.6576C157.652 28.7224 157.809 28.7535 157.809 30.6864ZM162.874 29.6576L164.642 30.2811L163.071 31.5281C160.95 33.2116 160.165 32.9622 160.165 30.6864C160.165 28.7535 160.322 28.7224 162.874 29.6576ZM152.979 33.118C153.686 33.6792 154.275 34.365 154.275 34.6768C154.275 35.1444 153.921 35.2379 151.919 35.2379H149.602L150.152 33.9598C151.133 31.7463 151.172 31.7463 152.979 33.118ZM167.155 32.8063C167.39 33.2116 167.783 33.8974 168.019 34.365L168.411 35.2379H166.055C163.228 35.2379 162.992 34.7703 164.956 33.1492C166.448 31.9334 166.566 31.9022 167.155 32.8063ZM154.157 37.919C154.314 38.2307 153.843 38.8542 152.861 39.6336L151.369 40.8494L150.819 40.0389C150.505 39.5712 150.112 38.7919 149.955 38.2931L149.602 37.4202H151.762C153.332 37.4202 153.961 37.5449 154.157 37.919ZM168.019 38.2931C167.862 38.7919 167.469 39.5712 167.155 40.0389L166.605 40.8494L165.113 39.6336C163.071 37.9813 163.346 37.4202 166.212 37.4202H168.372L168.019 38.2931ZM157.181 40.1012C157.652 40.2571 157.809 40.7247 157.809 42.0029V43.7175L156.631 43.5616C156.003 43.4369 155.021 43.1252 154.432 42.8446L153.45 42.3146L154.903 41.0988C155.728 40.4441 156.434 39.9142 156.474 39.9142C156.513 39.9142 156.827 40.0077 157.181 40.1012ZM163.071 41.0988L164.524 42.3146L163.621 42.7823C163.11 43.0628 162.128 43.3746 161.422 43.4681L160.165 43.7175V42.0029C160.165 40.4441 160.401 40.0389 161.343 39.9453C161.461 39.9142 162.246 40.4441 163.071 41.0988Z" fill="black"/>
<defs>
<linearGradient id="paint0_linear_1_43" x1="201.004" y1="56.9266" x2="-1.39113" y2="54.8543" gradientUnits="userSpaceOnUse">
<stop stop-color="#0500FF"/>
<stop offset="1"/>
</linearGradient>
<linearGradient id="paint1_linear_1_43" x1="201.004" y1="56.9266" x2="-1.39113" y2="54.8543" gradientUnits="userSpaceOnUse">
<stop stop-color="#0500FF"/>
<stop offset="1"/>
</linearGradient>
<linearGradient id="paint2_linear_1_43" x1="201.004" y1="56.9266" x2="-1.39113" y2="54.8543" gradientUnits="userSpaceOnUse">
<stop stop-color="#0500FF"/>
<stop offset="1"/>
</linearGradient>
<linearGradient id="paint3_linear_1_43" x1="201.004" y1="56.9266" x2="-1.39113" y2="54.8543" gradientUnits="userSpaceOnUse">
<stop stop-color="#0500FF"/>
<stop offset="1"/>
</linearGradient>
<linearGradient id="paint4_linear_1_43" x1="201.004" y1="56.9266" x2="-1.39113" y2="54.8543" gradientUnits="userSpaceOnUse">
<stop stop-color="#0500FF"/>
<stop offset="1"/>
</linearGradient>
<linearGradient id="paint5_linear_1_43" x1="201.004" y1="56.9266" x2="-1.39113" y2="54.8543" gradientUnits="userSpaceOnUse">
<stop stop-color="#0500FF"/>
<stop offset="1"/>
</linearGradient>
<linearGradient id="paint6_linear_1_43" x1="201.004" y1="56.9266" x2="-1.39113" y2="54.8543" gradientUnits="userSpaceOnUse">
<stop stop-color="#0500FF"/>
<stop offset="1"/>
</linearGradient>
</defs>
</svg>
